<?xml version="1.0" encoding="utf-8"?>
<!-- Generator: Adobe Illustrator 16.0.0, SVG Export Plug-In . SVG Version: 6.00 Build 0)  -->
<!DOCTYPE svg PUBLIC "-//W3C//DTD SVG 1.1//EN" "http://www.w3.org/Graphics/SVG/1.1/DTD/svg11.dtd">
<svg version="1.1" id="Layer_1" xmlns="http://www.w3.org/2000/svg" xmlns:xlink="http://www.w3.org/1999/xlink" x="0px" y="0px"
	 width="164px" height="32px" viewBox="0 0 164 32" enable-background="new 0 0 164 32" xml:space="preserve">
<g>
	<g>
		<g>
			
				<linearGradient id="XMLID_2_" gradientUnits="userSpaceOnUse" x1="60.7285" y1="18" x2="73.8096" y2="18" gradientTransform="matrix(1 0 0 -1 0 34)">
				<stop  offset="0" style="stop-color:#0C6C37"/>
				<stop  offset="0.0291" style="stop-color:#0A703A"/>
				<stop  offset="0.2695" style="stop-color:#0A8A44"/>
				<stop  offset="0.5117" style="stop-color:#089E49"/>
				<stop  offset="0.7547" style="stop-color:#0CAA4B"/>
				<stop  offset="1" style="stop-color:#00AE4D"/>
			</linearGradient>
			<polygon id="XMLID_16_" fill="url(#XMLID_2_)" points="64.65,9.771 60.778,0.556 60.729,20.437 65.025,31.444 73.81,31.444 			
				"/>
			
				<linearGradient id="XMLID_3_" gradientUnits="userSpaceOnUse" x1="54.7822" y1="5.0474" x2="54.7822" y2="33.4438" gradientTransform="matrix(1 0 0 -1 0 34)">
				<stop  offset="0" style="stop-color:#00AE4D"/>
				<stop  offset="0.1038" style="stop-color:#2FB44A"/>
				<stop  offset="0.2508" style="stop-color:#56B947"/>
				<stop  offset="0.3999" style="stop-color:#78C143"/>
				<stop  offset="0.5492" style="stop-color:#91C83E"/>
				<stop  offset="0.6987" style="stop-color:#A3CD3A"/>
				<stop  offset="0.8487" style="stop-color:#AFD138"/>
				<stop  offset="1" style="stop-color:#B2D237"/>
			</linearGradient>
			<polygon id="XMLID_15_" fill="url(#XMLID_3_)" points="56.908,9.77 48.787,28.953 57.441,28.953 60.729,20.437 60.778,0.556 			
				"/>
		</g>
		<g>
			
				<linearGradient id="XMLID_4_" gradientUnits="userSpaceOnUse" x1="45.4155" y1="18" x2="58.4961" y2="18" gradientTransform="matrix(1 0 0 -1 0 34)">
				<stop  offset="0" style="stop-color:#1D4179"/>
				<stop  offset="0.0047" style="stop-color:#1D4179"/>
				<stop  offset="0.2511" style="stop-color:#005B92"/>
				<stop  offset="0.4993" style="stop-color:#026EA1"/>
				<stop  offset="0.7485" style="stop-color:#0779A9"/>
				<stop  offset="1" style="stop-color:#087EAD"/>
			</linearGradient>
			<polygon id="XMLID_14_" fill="url(#XMLID_4_)" points="49.337,9.771 45.463,0.556 45.416,20.437 46.352,22.824 47.927,27.073 
				49.71,31.444 58.496,31.444 			"/>
			
				<linearGradient id="XMLID_5_" gradientUnits="userSpaceOnUse" x1="38.9478" y1="2.5562" x2="38.9478" y2="33.4438" gradientTransform="matrix(1 0 0 -1 0 34)">
				<stop  offset="0" style="stop-color:#087EAD"/>
				<stop  offset="0.0775" style="stop-color:#0C7FAF"/>
				<stop  offset="0.5363" style="stop-color:#0789BC"/>
				<stop  offset="1" style="stop-color:#038CC0"/>
			</linearGradient>
			<polygon id="XMLID_13_" fill="url(#XMLID_5_)" points="41.593,9.77 32.433,31.444 41.114,31.444 42.862,27.071 44.464,22.83 
				45.416,20.437 45.463,0.556 			"/>
		</g>
	</g>
	<g>
		<g>
			
				<linearGradient id="SVGID_1_" gradientUnits="userSpaceOnUse" x1="85.0879" y1="24.8682" x2="123.4297" y2="24.5777" gradientTransform="matrix(1 0 0 -1 0 34)">
				<stop  offset="0" style="stop-color:#1D4179"/>
				<stop  offset="0.0047" style="stop-color:#1D4179"/>
				<stop  offset="0.2511" style="stop-color:#005B92"/>
				<stop  offset="0.4993" style="stop-color:#026EA1"/>
				<stop  offset="0.7485" style="stop-color:#0779A9"/>
				<stop  offset="1" style="stop-color:#087EAD"/>
			</linearGradient>
			<path fill="url(#SVGID_1_)" d="M84.725,11.738h1.166c0,0.725,0.199,1.313,0.598,1.765c0.404,0.452,0.939,0.679,1.609,0.686
				c0.695,0.011,1.252-0.203,1.664-0.641c0.416-0.438,0.621-1.04,0.627-1.81c0.012-1.066-0.84-1.896-2.551-2.482l-0.287-0.1
				c-0.91-0.312-1.553-0.699-1.932-1.167c-0.381-0.469-0.568-1.075-0.568-1.823c0-0.963,0.301-1.751,0.904-2.366
				c0.604-0.614,1.379-0.922,2.326-0.922c0.9,0,1.619,0.28,2.158,0.839c0.557,0.582,0.854,1.367,0.891,2.358h-1.123
				c0-0.288-0.061-0.567-0.178-0.839c-0.119-0.271-0.26-0.496-0.422-0.673c-0.32-0.354-0.764-0.536-1.326-0.548
				c-0.6-0.012-1.09,0.183-1.467,0.581c-0.379,0.399-0.566,0.897-0.566,1.495c0,0.614,0.234,1.096,0.713,1.444
				c0.227,0.166,0.711,0.377,1.461,0.631l0.945,0.323c0.738,0.249,1.303,0.641,1.703,1.172c0.342,0.454,0.514,1.074,0.514,1.858
				c0,1.142-0.297,2.066-0.887,2.775c-0.633,0.747-1.506,1.125-2.615,1.136c-0.977,0.006-1.781-0.335-2.418-1.021
				C85.053,13.754,84.742,12.862,84.725,11.738z"/>
			
				<linearGradient id="SVGID_2_" gradientUnits="userSpaceOnUse" x1="85.0908" y1="24.957" x2="123.4306" y2="24.6666" gradientTransform="matrix(1 0 0 -1 0 34)">
				<stop  offset="0" style="stop-color:#1D4179"/>
				<stop  offset="0.0047" style="stop-color:#1D4179"/>
				<stop  offset="0.2511" style="stop-color:#005B92"/>
				<stop  offset="0.4993" style="stop-color:#026EA1"/>
				<stop  offset="0.7485" style="stop-color:#0779A9"/>
				<stop  offset="1" style="stop-color:#087EAD"/>
			</linearGradient>
			<path fill="url(#SVGID_2_)" d="M92.664,9.073c-0.006-0.848,0.154-1.653,0.48-2.417c0.322-0.747,0.795-1.424,1.422-2.029
				c0.625-0.607,1.275-1.048,1.957-1.326C97.232,3.02,98,2.873,98.824,2.862c0.793-0.006,1.568,0.142,2.324,0.438
				c0.746,0.294,1.416,0.741,2.023,1.338c0.605,0.598,1.063,1.267,1.367,2.006c0.303,0.739,0.461,1.548,0.473,2.429
				c0.004,0.858-0.125,1.64-0.393,2.345c-0.27,0.707-0.674,1.363-1.205,1.973c-0.264,0.305-0.586,0.599-0.969,0.88
				c-0.355,0.262-0.723,0.477-1.105,0.647c-0.762,0.345-1.607,0.515-2.531,0.515c-1.736,0-3.195-0.604-4.369-1.809
				C93.266,12.416,92.674,10.899,92.664,9.073z M93.908,9.09c0,1.46,0.484,2.695,1.445,3.703c0.949,0.986,2.127,1.483,3.537,1.494
				c1.34,0.006,2.488-0.496,3.447-1.507c0.957-1.01,1.441-2.252,1.451-3.723c0.008-1.364-0.479-2.547-1.461-3.556
				c-0.967-0.99-2.141-1.486-3.52-1.486c-1.146,0-2.16,0.377-3.047,1.129c-0.561,0.476-1.008,1.07-1.346,1.781
				S93.908,8.358,93.908,9.09z"/>
			
				<linearGradient id="SVGID_3_" gradientUnits="userSpaceOnUse" x1="85.082" y1="25.0195" x2="123.4376" y2="24.729" gradientTransform="matrix(1 0 0 -1 0 34)">
				<stop  offset="0" style="stop-color:#1D4179"/>
				<stop  offset="0.0047" style="stop-color:#1D4179"/>
				<stop  offset="0.2511" style="stop-color:#005B92"/>
				<stop  offset="0.4993" style="stop-color:#026EA1"/>
				<stop  offset="0.7485" style="stop-color:#0779A9"/>
				<stop  offset="1" style="stop-color:#087EAD"/>
			</linearGradient>
			<path fill="url(#SVGID_3_)" d="M112.113,15.192h-5.449V3.103h1.193v10.92h4.256V15.192z"/>
			
				<linearGradient id="SVGID_4_" gradientUnits="userSpaceOnUse" x1="85.0098" y1="25.0732" x2="123.456" y2="24.782" gradientTransform="matrix(1 0 0 -1 0 34)">
				<stop  offset="0" style="stop-color:#1D4179"/>
				<stop  offset="0.0047" style="stop-color:#1D4179"/>
				<stop  offset="0.2511" style="stop-color:#005B92"/>
				<stop  offset="0.4993" style="stop-color:#026EA1"/>
				<stop  offset="0.7485" style="stop-color:#0779A9"/>
				<stop  offset="1" style="stop-color:#087EAD"/>
			</linearGradient>
			<path fill="url(#SVGID_4_)" d="M114.844,15.192h-1.191V3.103h1.191V15.192z"/>
			
				<linearGradient id="SVGID_5_" gradientUnits="userSpaceOnUse" x1="85.1035" y1="25.1094" x2="123.4297" y2="24.819" gradientTransform="matrix(1 0 0 -1 0 34)">
				<stop  offset="0" style="stop-color:#1D4179"/>
				<stop  offset="0.0047" style="stop-color:#1D4179"/>
				<stop  offset="0.2511" style="stop-color:#005B92"/>
				<stop  offset="0.4993" style="stop-color:#026EA1"/>
				<stop  offset="0.7485" style="stop-color:#0779A9"/>
				<stop  offset="1" style="stop-color:#087EAD"/>
			</linearGradient>
			<path fill="url(#SVGID_5_)" d="M116.445,11.738h1.164c0,0.725,0.201,1.313,0.604,1.765c0.396,0.452,0.934,0.679,1.605,0.686
				c0.697,0.011,1.25-0.203,1.662-0.641c0.414-0.438,0.625-1.04,0.627-1.81c0.012-1.066-0.838-1.896-2.551-2.482l-0.287-0.1
				c-0.91-0.312-1.553-0.699-1.934-1.167c-0.379-0.469-0.566-1.075-0.566-1.823c0-0.963,0.305-1.751,0.904-2.366
				c0.604-0.614,1.379-0.922,2.324-0.922c0.902,0,1.623,0.28,2.16,0.839c0.559,0.582,0.859,1.367,0.889,2.358h-1.119
				c0-0.288-0.063-0.567-0.18-0.839s-0.26-0.496-0.42-0.673c-0.32-0.354-0.766-0.536-1.33-0.548
				c-0.598-0.012-1.082,0.183-1.465,0.581c-0.379,0.399-0.568,0.897-0.568,1.495c0,0.614,0.238,1.096,0.715,1.444
				c0.225,0.166,0.711,0.377,1.461,0.631l0.945,0.323c0.738,0.249,1.303,0.641,1.703,1.172c0.344,0.454,0.514,1.074,0.514,1.858
				c0,1.142-0.297,2.066-0.887,2.775c-0.631,0.747-1.504,1.125-2.615,1.136c-0.975,0.006-1.781-0.335-2.418-1.021
				C116.773,13.754,116.465,12.862,116.445,11.738z"/>
		</g>
		<g>
			<path fill="#DC325B" d="M78.903,28.823h-0.75v-6.876h-1.524v-0.753h3.799v0.753h-1.524L78.903,28.823L78.903,28.823z"/>
			<path fill="#454545" d="M85.99,26.175H80.79c0,0.319,0.055,0.603,0.166,0.847c0.102,0.224,0.274,0.447,0.52,0.678
				c0.416,0.387,0.922,0.581,1.525,0.581c0.434,0,0.832-0.118,1.188-0.355c0.326-0.22,0.586-0.527,0.781-0.923h0.84
				c-0.244,0.625-0.609,1.114-1.107,1.468c-0.482,0.346-1.043,0.518-1.682,0.518c-0.844,0-1.556-0.296-2.13-0.887
				c-0.577-0.594-0.865-1.314-0.865-2.162c0-0.895,0.279-1.622,0.842-2.184c0.563-0.56,1.292-0.843,2.182-0.853
				c0.848-0.002,1.553,0.298,2.111,0.902c0.555,0.596,0.83,1.367,0.83,2.315V26.175z M85.174,25.549
				c-0.125-0.625-0.387-1.106-0.783-1.446c-0.381-0.327-0.867-0.495-1.448-0.501c-0.58-0.008-1.065,0.174-1.452,0.545
				c-0.375,0.352-0.602,0.819-0.683,1.402H85.174z"/>
			<path fill="#454545" d="M91.449,24.832c-0.436-0.812-1.1-1.221-1.996-1.23c-0.615-0.008-1.131,0.231-1.539,0.719
				c-0.393,0.456-0.588,0.999-0.592,1.629c-0.002,0.646,0.193,1.19,0.592,1.634c0.408,0.457,0.932,0.689,1.574,0.697
				c0.906,0.01,1.559-0.412,1.961-1.259h0.818c-0.213,0.623-0.564,1.106-1.055,1.45s-1.057,0.516-1.689,0.516
				c-0.838,0-1.545-0.296-2.113-0.885c-0.57-0.592-0.859-1.307-0.863-2.142c-0.006-0.829,0.285-1.547,0.865-2.149
				c0.582-0.605,1.293-0.909,2.129-0.909c0.619,0,1.17,0.174,1.652,0.516c0.473,0.333,0.83,0.807,1.072,1.414H91.449L91.449,24.832z
				"/>
			<path fill="#00B1AE" d="M93.332,21.194h0.727v2.543c0.438-0.52,1.029-0.785,1.773-0.791c0.781-0.008,1.367,0.228,1.758,0.707
				c0.379,0.464,0.566,1.211,0.566,2.241v2.929h-0.729v-2.938c0-0.813-0.129-1.391-0.387-1.73c-0.248-0.327-0.666-0.495-1.252-0.501
				c-0.314-0.004-0.607,0.063-0.881,0.204c-0.25,0.13-0.453,0.321-0.602,0.575c-0.098,0.166-0.162,0.346-0.193,0.543
				c-0.035,0.206-0.053,0.558-0.053,1.045v2.803h-0.727v-7.629H93.332z"/>
			<path fill="#454545" d="M99.328,23.062h0.723v0.653c0.242-0.266,0.5-0.455,0.779-0.575c0.297-0.13,0.641-0.193,1.029-0.193
				c0.428,0,0.805,0.08,1.133,0.237c0.33,0.158,0.59,0.384,0.779,0.674c0.119,0.172,0.213,0.415,0.277,0.727
				c0.066,0.276,0.098,0.688,0.098,1.227v3.013h-0.729v-3.227c0-0.633-0.113-1.103-0.342-1.41c-0.256-0.35-0.689-0.527-1.301-0.533
				c-0.311-0.004-0.605,0.063-0.881,0.204c-0.248,0.13-0.449,0.321-0.6,0.575c-0.096,0.166-0.16,0.346-0.191,0.543
				c-0.035,0.206-0.053,0.558-0.053,1.045v2.803h-0.723V23.062L99.328,23.062z"/>
			<path fill="#454545" d="M105.004,25.946c0-0.837,0.289-1.56,0.867-2.163s1.266-0.903,2.064-0.903
				c0.822,0,1.531,0.292,2.123,0.877c0.594,0.588,0.887,1.293,0.895,2.118c0.008,0.853-0.285,1.586-0.871,2.201
				c-0.574,0.604-1.27,0.907-2.09,0.911c-0.83,0.006-1.539-0.292-2.119-0.891C105.295,27.495,105.004,26.78,105.004,25.946z
				 M105.781,25.938c-0.004,0.64,0.209,1.193,0.633,1.664c0.412,0.452,0.936,0.678,1.578,0.678c0.645,0,1.168-0.236,1.582-0.701
				c0.396-0.449,0.6-0.999,0.602-1.652c0.006-0.663-0.205-1.217-0.625-1.66c-0.422-0.443-0.965-0.669-1.627-0.678
				c-0.578-0.002-1.08,0.227-1.51,0.688C106,24.729,105.785,25.281,105.781,25.938z"/>
			<path fill="#E58836" d="M111.832,28.823v-7.629h0.74v7.629H111.832z"/>
			<path fill="#454545" d="M113.453,25.946c0-0.837,0.287-1.56,0.863-2.163c0.58-0.604,1.268-0.903,2.063-0.903
				c0.824,0,1.533,0.292,2.127,0.877c0.59,0.588,0.889,1.293,0.891,2.118c0.008,0.853-0.281,1.586-0.869,2.201
				c-0.572,0.604-1.268,0.907-2.092,0.911c-0.826,0.006-1.533-0.292-2.115-0.891C113.74,27.495,113.453,26.78,113.453,25.946z
				 M114.225,25.938c-0.002,0.64,0.207,1.193,0.635,1.664c0.41,0.452,0.936,0.678,1.578,0.678c0.645,0,1.172-0.236,1.582-0.701
				c0.398-0.449,0.6-0.999,0.602-1.652c0.004-0.663-0.203-1.217-0.627-1.66c-0.418-0.443-0.959-0.669-1.627-0.678
				c-0.572-0.002-1.076,0.227-1.508,0.688C114.443,24.729,114.232,25.281,114.225,25.938z"/>
			<path fill="#454545" d="M125.83,27.868c0,0.964-0.234,1.725-0.695,2.286c-0.496,0.609-1.215,0.915-2.152,0.923
				c-0.65,0.004-1.213-0.156-1.688-0.481c-0.457-0.313-0.756-0.745-0.9-1.299h0.859c0.113,0.336,0.313,0.596,0.602,0.775
				c0.305,0.191,0.66,0.29,1.074,0.29c0.684,0,1.225-0.234,1.619-0.697c0.369-0.442,0.555-1.012,0.555-1.711v-0.149
				c-0.273,0.382-0.596,0.671-0.963,0.869c-0.35,0.182-0.738,0.279-1.168,0.281c-0.857,0.009-1.574-0.281-2.154-0.864
				c-0.578-0.584-0.865-1.303-0.865-2.164s0.281-1.576,0.844-2.142c0.564-0.567,1.264-0.854,2.105-0.859
				c0.906-0.006,1.641,0.352,2.201,1.081v-0.945h0.727V27.868L125.83,27.868z M125.094,25.98c0.006-0.637-0.207-1.192-0.639-1.666
				c-0.432-0.476-0.941-0.713-1.525-0.713c-0.582,0-1.094,0.22-1.529,0.659c-0.438,0.441-0.656,0.986-0.658,1.634
				c-0.008,0.642,0.197,1.191,0.605,1.652c0.422,0.476,0.951,0.715,1.582,0.722c0.547,0.01,1.045-0.225,1.5-0.689
				C124.869,27.125,125.09,26.592,125.094,25.98z"/>
			<path fill="#DC325B" d="M126.209,23.062h0.854l1.777,4.667l1.867-4.667h0.859l-3.115,7.624h-0.791l0.771-1.872L126.209,23.062z"
				/>
		</g>
	</g>
</g>
</svg>
