<svg xmlns="http://www.w3.org/2000/svg" viewBox="0 0 150 150"><defs><style>.cls-1{fill:#090e34;}.cls-2{fill:#2e3d86;}</style></defs><title>2</title><g id="Layer_1" data-name="Layer 1"><rect class="cls-1" width="150" height="150"/></g><g id="Layer_8" data-name="Layer 8"><path class="cls-2" d="M66.8,102c4.24-6,4.81-11.14,3-16.34-1.66-4.84,0-6.56,4.67-6.65,5.07-.1,7.68,1.39,5.42,7.08-1.93,4.88-.8,9.55,2.25,14.51,3.14-2.93,3.44-6.71,4.48-10.22s.55-8.7,5.41-9.76c5.28-1.15,9.36,2.07,12.8,5.68,6.45,6.75,7.93,15.14,5.06,23.51-2.65,7.69-10.32,5.37-16.24,5.46-14.2.22-28.41-.13-42.6.14-11.63.21-13.47-7-11.94-15.87,1.61-9.24,4.43-18.36,16.45-18.87,4.49-.19,6,3.16,7,6.67C64,91.79,65.2,96.32,66.8,102Z"/><path class="cls-2" d="M95.4,54A20.4,20.4,0,0,1,76.1,75.17c-12.21.71-21.25-7.35-21.76-19.39-.49-11.87,8.37-21.11,20.41-21.28C86.37,34.34,95.08,42.59,95.4,54Z"/></g></svg>