<svg xmlns="http://www.w3.org/2000/svg" viewBox="0 0 150 150"><defs><style>.cls-1{fill:#090e34;}.cls-2{fill:#2e3d86;}</style></defs><title>4</title><g id="Layer_1" data-name="Layer 1"><rect class="cls-1" width="150" height="150"/></g><g id="Layer_6" data-name="Layer 6"><path class="cls-2" d="M69.16,66C64.88,79.09,75.08,87.29,84.4,96.24c8.84,8.5,7.51,12.81-4.2,16.23-17.18,5-37.29-5-43.92-22A36.59,36.59,0,0,1,53.75,44.8c11.42-5.91,15.18-3.75,15.4,8.86C69.21,57.06,69.16,60.47,69.16,66Z"/><path class="cls-2" d="M92.35,72.78c-5-1.34-14.46,3.44-16.68-2.81-3.32-9.35-2.27-20.31-.24-30.32,1-4.81,6.38-3.44,9.93-2.45A35.81,35.81,0,0,1,109.5,58.41c4.8,11.14,2.55,14.18-9.72,14.37C97.65,72.81,95.51,72.78,92.35,72.78Z"/><path class="cls-2" d="M76.45,80.59c13.85-3,23.89-1.78,33.83-1.77,3.17,0,6.1,1.49,5.91,5.2-.34,7.07-3.67,13-8.55,17.91-2.41,2.44-5.39,2.16-7.94-.15C92.6,95.36,85.55,88.9,76.45,80.59Z"/></g></svg>