<svg xmlns="http://www.w3.org/2000/svg" viewBox="0 0 150 150"><defs><style>.cls-1{fill:#090e34;}.cls-2{fill:#2e3d86;}</style></defs><title>6</title><g id="Layer_1" data-name="Layer 1"><rect class="cls-1" width="150" height="150"/></g><g id="Layer_3" data-name="Layer 3"><path class="cls-2" d="M114.38,74.5c-.09,19.07-12.87,35.06-30.56,38.19-20.7,3.67-39.21-6.41-45.94-25-6.37-17.59,1.09-38,17.51-46.9,4.42-2.4,10.52-7.08,14.23-1.51C74.23,46.19,66.2,47.45,62,50,50.39,57,45,69.38,48.29,81.66a27.87,27.87,0,0,0,27.53,20.69c12.41-.18,22.67-8.33,26-20.71S100,57,88.27,50C84,47.39,76.1,46,80.56,39.21c3.68-5.63,9.82-.9,14.13,1.58C107.57,48.19,114.43,59.42,114.38,74.5Z"/></g></svg>