<svg xmlns="http://www.w3.org/2000/svg" viewBox="0 0 150 150"><defs><style>.cls-1{fill:#090e34;}.cls-2{fill:#2e3d86;}</style></defs><title>7</title><g id="Layer_1" data-name="Layer 1"><rect class="cls-1" width="150" height="150"/></g><g id="Layer_2" data-name="Layer 2"><path class="cls-2" d="M115,59C113.54,81.28,104,99,85.59,112c-7,4.93-13.47,5.42-20.53.56C45.12,98.76,35.83,79.37,34.91,55.62A13.28,13.28,0,0,1,37,47.81c5.94-8.16,39.21-16.65,48.91-12.76,6.48,2.6,12.93,5.27,19.3,8.11C114.84,47.45,115.38,48.46,115,59ZM75.86,103.45C88,96.3,94.11,88,98.3,78c8.24-19.64,4.92-26-15.32-31.59-6-1.66-7.24.14-7.18,5.61C76,68.15,75.86,84.32,75.86,103.45Z"/><path class="cls-1" d="M76.14,101.52c0-19.12.12-35.29-.06-51.46-.06-5.47,1.13-7.27,7.18-5.61C103.5,50,106.82,56.4,98.58,76,94.39,86,88.3,94.38,76.14,101.52Z"/></g></svg>