<svg xmlns="http://www.w3.org/2000/svg" viewBox="0 0 150 150"><defs><style>.cls-1{fill:#090e34;}.cls-2{fill:#2e3d86;}</style></defs><title>8</title><g id="Layer_1" data-name="Layer 1"><rect class="cls-1" width="150" height="150"/></g><g id="Layer_5" data-name="Layer 5"><path class="cls-2" d="M99.4,59.47c-3.23-13-13.07-17.65-24.91-18.63C60.55,39.7,49.85,45.18,44.11,58.6c-3.56,1-6.26,3.4-3,6.42,2.57,2.41,4.26-1.3,5.59-3.47,5.17-1.39,11.58-4.35,14.66,1.63a24.94,24.94,0,0,1,.11,22.26c-3.13,6.34-14.11,3.87-17.36-3.87-1.68-4-2-8.52-2.92-12.69-5.64-.64-2.25,9.3-8,6.66s-2.26-8.09-1.38-12C36.22,43.82,54.14,31,75,32.06a40.81,40.81,0,0,1,38,36.1c1.17,10.28.88,20.79.42,31.17-.43,9.64-6.33,14.63-15.95,14.84-8.14.18-16.29,0-24.43.06-4.7,0-9.26-.35-11.15-5.63a7.18,7.18,0,0,1,2.41-8.55c4.42-3.31,9.44-2.78,14.09-.66,1.87.86,2.84,3.5,4.62,4.78,4.87,3.5,10.48,2.3,15.58,1.09,5.49-1.29,5.94-6.45,5.46-11.05-1.21-11.69,3.74-24.28-4.89-34.93Z"/><path class="cls-2" d="M99.23,59.28c.2,6.44,1.39,13,.33,19.26-1,5.67-4.32,11.36-11.81,10.23-6.39-1-6-6.3-7-11.34-3.31-16.37,6.88-17.78,18.65-18Z"/><path class="cls-2" d="M46.66,61.55c-1.33,2.17-3,5.88-5.59,3.47-3.22-3-.52-5.42,3-6.42Z"/></g></svg>